:FULLY-SPECIFIED
:FORCE-ALL-JOINTS-BE-3DOF
:DEGREES
2854
root -6.08962 13.2678 -28.8142 160.743 -66.6884 -159.07
lfemur -65.4157 44.9663 -5.4476
ltibia 77.0583 -0 0
lfoot -4.59613 -6.25525 0.00141997
ltoes -28.7388 0 0
rfemur -31.0764 -19.2524 22.4312
rtibia 88.6877 -0 0
rfoot -41.1148 -28.7233 0.000265258
rtoes -13.8593 0 0
lowerback 15.6324 5.62825 0.942602
upperback -4.49147 7.9858 1.66396
thorax -13.9288 3.70089 -0.854132
lowerneck -2.51861 9.64006 2.25575
upperneck 9.1505 12.5538 2.00425
head 3.40364 6.34094 0.738455
lclavicle -2.9122e-14 1.19271e-15 0
lhumerus 5.53212 12.2328 84.2394
lradius 93.4727 -0 0
lwrist -19.1609 0 0
lhand -39.5144 28.2466 -0.000123535
lfingers 7.12502 -0 0
lthumb -12.4997 57.8531 -0.000118594
rclavicle -2.9122e-14 1.19271e-15 0
rhumerus -59.1453 51.0106 -111.56
rradius 113.638 -0 0
rwrist -83.7903 0 0
rhand 7.97605 -26.012 0.00027021
rfingers 7.12502 -0 0
rthumb 33.2043 -52.9691 0.000318796
2855
root -6.09106 13.2651 -28.8138 160.721 -66.7003 -159.019
lfemur -65.5 44.9688 -5.4794
ltibia 77.1034 -0 0
lfoot -4.6779 -6.25289 0.00102483
ltoes -28.9877 0 0
rfemur -31.1236 -19.2369 22.4504
rtibia 88.7255 -0 0
rfoot -41.1058 -28.7722 0.000222406
rtoes -13.8662 0 0
lowerback 15.6426 5.62171 0.974188
upperback -4.4987 7.98409 1.66435
thorax -13.939 3.69694 -0.871911
lowerneck -2.52676 9.63694 2.255
upperneck 9.15342 12.5485 2.01531
head 3.40581 6.33867 0.74232
lclavicle -2.9122e-14 1.19271e-15 0
lhumerus 5.5501 12.2328 84.2245
lradius 93.4543 -0 0
lwrist -19.1759 0 0
lhand -39.4974 28.1958 -9.69095e-05
lfingers 7.12502 -0 0
lthumb -12.4833 57.8033 -9.28026e-05
rclavicle -2.9122e-14 1.19271e-15 0
rhumerus -59.1521 51.0272 -111.584
rradius 113.62 -0 0
rwrist -83.752 0 0
rhand 8.00125 -25.9871 0.000215568
rfingers 7.12502 -0 0
rthumb 33.2282 -52.9391 0.000256661
2856
root -6.09249 13.2623 -28.8135 160.694 -66.7151 -158.954
lfemur -65.6034 44.9683 -5.51455
ltibia 77.1633 -0 0
lfoot -4.7743 -6.24649 0.000549438
ltoes -29.2628 0 0
rfemur -31.182 -19.2176 22.4754
rtibia 88.7758 -0 0
rfoot -41.0962 -28.8375 0.000134748
rtoes -13.8684 0 0
lowerback 15.6582 5.6144 1.01323
upperback -4.50804 7.9831 1.66451
thorax -13.9538 3.69246 -0.894884
lowerneck -2.53583 9.63352 2.2541
upperneck 9.15784 12.5426 2.02719
head 3.40813 6.33618 0.746648
lclavicle -2.9122e-14 1.19271e-15 0
lhumerus 5.57124 12.2393 84.2107
lradius 93.4297 -0 0
lwrist -19.1895 0 0
lhand -39.4775 28.142 -5.75111e-05
lfingers 7.12502 -0 0
lthumb -12.4641 57.7506 -5.49299e-05
rclavicle -2.9122e-14 1.19271e-15 0
rhumerus -59.1617 51.048 -111.611
rradius 113.599 -0 0
rwrist -83.7067 0 0
rhand 8.03105 -25.9586 0.000128826
rfingers 7.12502 -0 0
rthumb 33.2566 -52.9046 0.00015447
2857
root -6.09392 13.2596 -28.8131 1240.66 -66.7331 -158.876
lfemur -65.7282 44.9644 -5.55299
ltibia 77.2399 0 0
lfoot -4.88648 -6.23588 0
ltoes -29.5651 0 0
rfemur -31.2528 -19.1941 22.5069
rtibia 88.84 0 0
rfoot -41.0861 -28.9213 0
rtoes -13.8697 0 0
lowerback 15.6798 5.60624 1.06061
upperback -4.51975 7.98291 1.6644
thorax -13.9738 3.68739 -0.923678
lowerneck -2.54576 9.62974 2.25375
upperneck 9.16399 12.536 2.03988
head 3.41119 6.33341 0.751245
lclavicle -2.9122e-14 1.19271e-15 0
lhumerus 5.59618 12.2531 84.1984
lradius 93.3981 0 0
lwrist -19.2015 0 0
lhand -39.4545 388.085 0
lfingers 7.12502 0 0
lthumb -12.4419 -662.305 0
rclavicle -2.9122e-14 1.19271e-15 0
rhumerus -59.1743 51.0736 -111.643
rradius 113.575 0 0
rwrist -83.6537 0 0
rhand 8.0662 -385.926 0
rfingers 7.12502 0 0
rthumb 33.29 307.135 0
2858
root -6.09418 13.2576 -28.8107 160.625 -66.7526 -158.797
lfemur -65.8546 44.9592 -5.59173
ltibia 77.3188 -0 0
lfoot -4.9972 -6.22461 -0.000488728
ltoes -29.8551 0 0
rfemur -31.3239 -19.1705 22.5388
rtibia 88.9064 -0 0
rfoot -41.0753 -29.0105 -0.000146132
rtoes -13.92 0 0
lowerback 15.702 5.5983 1.10867
upperback -4.53179 7.98321 1.66425
thorax -13.9944 3.68245 -0.953097
lowerneck -2.5553 9.62601 2.25363
upperneck 9.17073 12.5295 2.05216
head 3.42458 6.3168 0.774545
lclavicle 4.52421e-14 4.17448e-14 0
lhumerus 5.62068 12.2689 84.189
lradius 93.3675 -0 0
lwrist -19.2144 0 0
lhand -39.4322 28.032 7.45555e-05
lfingers 7.12502 -0 0
lthumb -12.4204 57.6433 7.08237e-05
rclavicle 4.52421e-14 4.17448e-14 0
rhumerus -59.1881 51.0998 -111.675
rradius 113.551 -0 0
rwrist -83.6008 0 0
rhand 8.1015 -25.8952 -0.000145951
rfingers 7.12502 -0 0
rthumb 33.3236 -52.8271 -0.00017694
2859
root -6.09444 13.2557 -28.8083 160.597 -66.7716 -158.732
lfemur -65.9625 44.9551 -5.62795
ltibia 77.385 -0 0
lfoot -5.08975 -6.21589 -0.000810257
ltoes -30.096 0 0
rfemur -31.3834 -19.151 22.5646
rtibia 88.9627 -0 0
rfoot -41.0635 -29.091 -0.000267127
rtoes -13.8981 0 0
lowerback 15.7191 5.5917 1.14958
upperback -4.54206 7.98367 1.66429
thorax -14.011 3.67838 -0.977828
lowerneck -2.56326 9.62268 2.25332
upperneck 9.17609 12.5244 2.06075
head 3.42421 6.3156 0.77543
lclavicle 4.52421e-14 4.17448e-14 0
lhumerus 5.64024 12.2813 84.1836
lradius 93.3455 -0 0
lwrist -19.2256 0 0
lhand -39.4144 27.9894 0.000153259
lfingers 7.12502 -0 0
lthumb -12.4033 57.6017 0.000145317
rclavicle 4.52421e-14 4.17448e-14 0
rhumerus -59.2007 51.1223 -111.702
rradius 113.531 -0 0
rwrist -83.556 0 0
rhand 8.13145 -25.8717 -0.000271206
rfingers 7.12502 -0 0
rthumb 33.3521 -52.7976 -0.000331246
2860
root -6.09469 13.2537 -28.8059 160.574 -66.7901 -158.679
lfemur -66.0533 44.9519 -5.66182
ltibia 77.4395 -0 0
lfoot -5.16609 -6.20903 -0.000993612
ltoes -30.2928 0 0
rfemur -31.4326 -19.135 22.5848
rtibia 89.0101 -0 0
rfoot -41.0508 -29.1634 -0.000363897
rtoes -13.9069 0 0
lowerback 15.7318 5.58634 1.18396
upperback -4.55074 7.98429 1.66446
thorax -14.0239 3.67512 -0.998322
lowerneck -2.56979 9.6197 2.25281
upperneck 9.18095 12.5192 2.06954
head 3.42384 6.3144 0.776314
lclavicle 4.52421e-14 4.17448e-14 0
lhumerus 5.65512 12.2908 84.1819
lradius 93.331 -0 0
lwrist -19.2353 0 0
lhand -39.4007 27.9564 0.000227368
lfingers 7.12502 -0 0
lthumb -12.39 57.5695 0.000215285
rclavicle 4.52421e-14 4.17448e-14 0
rhumerus -59.2122 51.1415 -111.726
rradius 113.514 -0 0
rwrist -83.5187 0 0
rhand 8.15631 -25.8549 -0.000370458
rfingers 7.12502 -0 0
rthumb 33.3757 -52.7758 -0.000456708
2861
root -6.09495 13.2518 -28.8035 160.557 -66.8077 -158.638
lfemur -66.1288 44.9496 -5.69353
ltibia 77.4836 -0 0
lfoot -5.22815 -6.20335 -0.00106366
ltoes -30.4504 0 0
rfemur -31.4728 -19.1221 22.5998
rtibia 89.0493 -0 0
rfoot -41.0375 -29.2281 -0.000437837
rtoes -13.9179 0 0
lowerback 15.7405 5.58214 1.21241
upperback -4.558 7.98511 1.66475
thorax -14.0337 3.67261 -1.01503
lowerneck -2.57507 9.61703 2.25208
upperneck 9.18506 12.5143 2.07733
head 3.42348 6.3132 0.777199
lclavicle 4.52421e-14 4.17448e-14 0
lhumerus 5.66556 12.2981 84.1834
lradius 93.3231 -0 0
lwrist -19.2435 0 0
lhand -39.3905 27.9319 0.000291299
lfingers 7.12502 -0 0
lthumb -12.3802 57.5456 0.000275506
rclavicle 4.52421e-14 4.17448e-14 0
rhumerus -59.2226 51.1576 -111.745
rradius 113.5 -0 0
rwrist -83.4882 0 0
rhand 8.17633 -25.844 -0.000441037
rfingers 7.12502 -0 0
rthumb 33.3947 -52.7608 -0.000549975
2862
root -6.09521 13.2498 -28.8011 160.545 -66.8245 -158.608
lfemur -66.1905 44.948 -5.72324
ltibia 77.5184 -0 0
lfoot -5.2779 -6.19815 -0.00104227
ltoes -30.5739 0 0
rfemur -31.5051 -19.1118 22.6102
rtibia 89.0814 -0 0
rfoot -41.0236 -29.2856 -0.000490698
rtoes -13.93 0 0
lowerback 15.746 5.57902 1.23554
upperback -4.56399 7.98614 1.66511
thorax -14.0407 3.67078 -1.02839
lowerneck -2.57923 9.61461 2.2511
upperneck 9.18845 12.5098 2.0842
head 3.42311 6.31199 0.778084
lclavicle 4.52421e-14 4.17448e-14 0
lhumerus 5.67181 12.3036 84.1876
lradius 93.3206 -0 0
lwrist -19.2502 0 0
lhand -39.3835 27.9151 0.000341951
lfingers 7.12502 -0 0
lthumb -12.3734 57.5292 0.000323086
rclavicle 4.52421e-14 4.17448e-14 0
rhumerus -59.2318 51.1709 -111.761
rradius 113.489 -0 0
rwrist -83.4638 0 0
rhand 8.19177 -25.8383 -0.000482461
rfingers 7.12502 -0 0
rthumb 33.4094 -52.7519 -0.000610087
2863
root -6.09547 13.2479 -28.7988 160.537 -66.8403 -158.587
lfemur -66.2399 44.947 -5.75112
ltibia 77.545 -0 0
lfoot -5.31729 -6.19275 -0.000949262
ltoes -30.6683 0 0
rfemur -31.5308 -19.1036 22.6164
rtibia 89.1074 -0 0
rfoot -41.0093 -29.3364 -0.000524478
rtoes -13.9426 0 0
lowerback 15.7487 5.57688 1.25395
upperback -4.56888 7.9874 1.6655
thorax -14.0455 3.66956 -1.03887
lowerneck -2.59631 9.60177 2.24306
upperneck 9.19117 12.5056 2.09024
head 3.42274 6.31079 0.778969
lclavicle 4.52421e-14 4.17448e-14 0
lhumerus 5.6741 12.3078 84.1942
lradius 93.3423 -0 0
lwrist -19.2618 0 0
lhand -39.3791 27.905 0.000378093
lfingers 7.12502 -0 0
lthumb -12.3692 57.5194 0.000356894
rclavicle 4.52421e-14 4.17448e-14 0
rhumerus -59.2399 51.1817 -111.773
rradius 113.48 -0 0
rwrist -83.4449 0 0
rhand 8.20287 -25.837 -0.000496014
rfingers 7.12502 -0 0
rthumb 33.42 -52.7484 -0.000638031
2864
root -6.09572 13.2459 -28.7964 160.535 -66.8549 -158.575
lfemur -66.2787 44.9464 -5.77735
ltibia 77.5645 -0 0
lfoot -5.34827 -6.18646 -0.000803119
ltoes -30.7385 0 0
rfemur -31.5512 -19.0971 22.6189
rtibia 89.1281 -0 0
rfoot -40.9946 -29.3812 -0.000541319
rtoes -13.9596 0 0
lowerback 15.7493 5.57564 1.26825
upperback -4.5894 7.99665 1.66765
thorax -14.0485 3.66891 -1.04691
lowerneck -2.5944 9.60103 2.24068
upperneck 9.19324 12.5017 2.09552
head 3.42238 6.30959 0.779854
lclavicle 4.52421e-14 4.17448e-14 0
lhumerus 5.67269 12.3115 84.2027
lradius 93.3237 -0 0
lwrist -19.2674 0 0
lhand -39.3708 27.8927 0.000469463
lfingers 7.12502 -0 0
lthumb -12.3612 57.5076 0.000441039
rclavicle 4.52421e-14 4.17448e-14 0
rhumerus -59.2468 51.1903 -111.783
rradius 113.473 -0 0
rwrist -83.4308 0 0
rhand 8.2099 -25.8394 -0.000484362
rfingers 7.12502 -0 0
rthumb 33.4267 -52.7494 -0.00063634
2865
root -6.09598 13.244 -28.794 160.537 -66.8681 -158.571
lfemur -66.3084 44.9461 -5.80208
ltibia 77.5782 -0 0
lfoot -5.37279 -6.1786 -0.000621437
ltoes -30.7897 0 0
rfemur -31.5674 -19.0917 22.6182
rtibia 89.1444 -0 0
rfoot -40.9797 -29.4203 -0.000543423
rtoes -13.9601 0 0
lowerback 15.7483 5.5752 1.27906
upperback -4.58844 7.99914 1.66762
thorax -14.0502 3.66874 -1.05295
lowerneck -2.593 9.6001 2.23812
upperneck 9.1947 12.4979 2.10012
head 3.42201 6.30838 0.780739
lclavicle 4.52421e-14 4.17448e-14 0
lhumerus 5.66782 12.315 84.2128
lradius 93.3451 -0 0
lwrist -19.2718 0 0
lhand -39.3771 27.9128 0.000417535
lfingers 7.12502 -0 0
lthumb -12.3672 57.5273 0.000391718
rclavicle 4.52421e-14 4.17448e-14 0
rhumerus -59.2526 51.197 -111.79
rradius 113.464 -0 0
rwrist -83.4209 0 0
rhand 8.2131 -25.8449 -0.000451194
rfingers 7.12502 -0 0
rthumb 33.4297 -52.7542 -0.000608718
